<svg width="497" height="306" viewBox="0 0 497 306" fill="none" xmlns="http://www.w3.org/2000/svg">
<path d="M79.3685 50C79.3685 50 370.907 50 421.384 50C471.862 50 471.214 159.407 421.384 159.407C371.554 159.407 117.55 159.407 79.3685 159.407C41.187 159.407 39.246 261 79.3685 261C119.491 261 421.384 261 421.384 261" stroke="#0099FF" stroke-opacity="0.65" stroke-width="5" stroke-linecap="round"/>
<circle cx="100" cy="50" r="50" fill="#0099FF"/>
<circle cx="447" cy="106" r="50" fill="#0099FF"/>
<circle cx="50" cy="206" r="50" fill="#0099FF"/>
<circle cx="447" cy="256" r="50" fill="#0099FF"/>
<path d="M160.76 23.1V31.96C160.76 33.0133 161.033 33.8067 161.58 34.34C162.14 34.8733 162.913 35.14 163.9 35.14C164.9 35.14 165.673 34.8733 166.22 34.34C166.78 33.8067 167.06 33.0133 167.06 31.96V23.1H169.34V31.92C169.34 33.0533 169.093 34.0133 168.6 34.8C168.107 35.5867 167.447 36.1733 166.62 36.56C165.793 36.9467 164.88 37.14 163.88 37.14C162.88 37.14 161.967 36.9467 161.14 36.56C160.327 36.1733 159.68 35.5867 159.2 34.8C158.72 34.0133 158.48 33.0533 158.48 31.92V23.1H160.76ZM174.589 27.6C174.975 27.0933 175.502 26.6667 176.169 26.32C176.835 25.9733 177.589 25.8 178.429 25.8C179.389 25.8 180.262 26.04 181.049 26.52C181.849 26.9867 182.475 27.6467 182.929 28.5C183.382 29.3533 183.609 30.3333 183.609 31.44C183.609 32.5467 183.382 33.54 182.929 34.42C182.475 35.2867 181.849 35.9667 181.049 36.46C180.262 36.94 179.389 37.18 178.429 37.18C177.589 37.18 176.842 37.0133 176.189 36.68C175.535 36.3333 175.002 35.9067 174.589 35.4V42.24H172.309V25.98H174.589V27.6ZM181.289 31.44C181.289 30.68 181.129 30.0267 180.809 29.48C180.502 28.92 180.089 28.5 179.569 28.22C179.062 27.9267 178.515 27.78 177.929 27.78C177.355 27.78 176.809 27.9267 176.289 28.22C175.782 28.5133 175.369 28.94 175.049 29.5C174.742 30.06 174.589 30.72 174.589 31.48C174.589 32.24 174.742 32.9067 175.049 33.48C175.369 34.04 175.782 34.4667 176.289 34.76C176.809 35.0533 177.355 35.2 177.929 35.2C178.515 35.2 179.062 35.0533 179.569 34.76C180.089 34.4533 180.502 34.0133 180.809 33.44C181.129 32.8667 181.289 32.2 181.289 31.44ZM188.143 22.2V37H185.863V22.2H188.143ZM195.917 37.18C194.877 37.18 193.937 36.9467 193.097 36.48C192.257 36 191.597 35.3333 191.117 34.48C190.637 33.6133 190.397 32.6133 190.397 31.48C190.397 30.36 190.643 29.3667 191.137 28.5C191.63 27.6333 192.303 26.9667 193.157 26.5C194.01 26.0333 194.963 25.8 196.017 25.8C197.07 25.8 198.023 26.0333 198.877 26.5C199.73 26.9667 200.403 27.6333 200.897 28.5C201.39 29.3667 201.637 30.36 201.637 31.48C201.637 32.6 201.383 33.5933 200.877 34.46C200.37 35.3267 199.677 36 198.797 36.48C197.93 36.9467 196.97 37.18 195.917 37.18ZM195.917 35.2C196.503 35.2 197.05 35.06 197.557 34.78C198.077 34.5 198.497 34.08 198.817 33.52C199.137 32.96 199.297 32.28 199.297 31.48C199.297 30.68 199.143 30.0067 198.837 29.46C198.53 28.9 198.123 28.48 197.617 28.2C197.11 27.92 196.563 27.78 195.977 27.78C195.39 27.78 194.843 27.92 194.337 28.2C193.843 28.48 193.45 28.9 193.157 29.46C192.863 30.0067 192.717 30.68 192.717 31.48C192.717 32.6667 193.017 33.5867 193.617 34.24C194.23 34.88 194.997 35.2 195.917 35.2ZM203.131 31.44C203.131 30.3333 203.357 29.3533 203.811 28.5C204.277 27.6467 204.904 26.9867 205.691 26.52C206.491 26.04 207.371 25.8 208.331 25.8C209.197 25.8 209.951 25.9733 210.591 26.32C211.244 26.6533 211.764 27.0733 212.151 27.58V25.98H214.451V37H212.151V35.36C211.764 35.88 211.237 36.3133 210.571 36.66C209.904 37.0067 209.144 37.18 208.291 37.18C207.344 37.18 206.477 36.94 205.691 36.46C204.904 35.9667 204.277 35.2867 203.811 34.42C203.357 33.54 203.131 32.5467 203.131 31.44ZM212.151 31.48C212.151 30.72 211.991 30.06 211.671 29.5C211.364 28.94 210.957 28.5133 210.451 28.22C209.944 27.9267 209.397 27.78 208.811 27.78C208.224 27.78 207.677 27.9267 207.171 28.22C206.664 28.5 206.251 28.92 205.931 29.48C205.624 30.0267 205.471 30.68 205.471 31.44C205.471 32.2 205.624 32.8667 205.931 33.44C206.251 34.0133 206.664 34.4533 207.171 34.76C207.691 35.0533 208.237 35.2 208.811 35.2C209.397 35.2 209.944 35.0533 210.451 34.76C210.957 34.4667 211.364 34.04 211.671 33.48C211.991 32.9067 212.151 32.24 212.151 31.48ZM216.685 31.44C216.685 30.3333 216.912 29.3533 217.365 28.5C217.832 27.6467 218.459 26.9867 219.245 26.52C220.045 26.04 220.932 25.8 221.905 25.8C222.625 25.8 223.332 25.96 224.025 26.28C224.732 26.5867 225.292 27 225.705 27.52V22.2H228.005V37H225.705V35.34C225.332 35.8733 224.812 36.3133 224.145 36.66C223.492 37.0067 222.739 37.18 221.885 37.18C220.925 37.18 220.045 36.94 219.245 36.46C218.459 35.9667 217.832 35.2867 217.365 34.42C216.912 33.54 216.685 32.5467 216.685 31.44ZM225.705 31.48C225.705 30.72 225.545 30.06 225.225 29.5C224.919 28.94 224.512 28.5133 224.005 28.22C223.499 27.9267 222.952 27.78 222.365 27.78C221.779 27.78 221.232 27.9267 220.725 28.22C220.219 28.5 219.805 28.92 219.485 29.48C219.179 30.0267 219.025 30.68 219.025 31.44C219.025 32.2 219.179 32.8667 219.485 33.44C219.805 34.0133 220.219 34.4533 220.725 34.76C221.245 35.0533 221.792 35.2 222.365 35.2C222.952 35.2 223.499 35.0533 224.005 34.76C224.512 34.4667 224.919 34.04 225.225 33.48C225.545 32.9067 225.705 32.24 225.705 31.48ZM240.735 23.1C242.215 23.1 243.509 23.3867 244.615 23.96C245.735 24.52 246.595 25.3333 247.195 26.4C247.809 27.4533 248.115 28.6867 248.115 30.1C248.115 31.5133 247.809 32.74 247.195 33.78C246.595 34.82 245.735 35.62 244.615 36.18C243.509 36.7267 242.215 37 240.735 37H236.195V23.1H240.735ZM240.735 35.14C242.362 35.14 243.609 34.7 244.475 33.82C245.342 32.94 245.775 31.7 245.775 30.1C245.775 28.4867 245.342 27.2267 244.475 26.32C243.609 25.4133 242.362 24.96 240.735 24.96H238.475V35.14H240.735ZM255.155 37.18C254.115 37.18 253.175 36.9467 252.335 36.48C251.495 36 250.835 35.3333 250.355 34.48C249.875 33.6133 249.635 32.6133 249.635 31.48C249.635 30.36 249.882 29.3667 250.375 28.5C250.868 27.6333 251.542 26.9667 252.395 26.5C253.248 26.0333 254.202 25.8 255.255 25.8C256.308 25.8 257.262 26.0333 258.115 26.5C258.968 26.9667 259.642 27.6333 260.135 28.5C260.628 29.3667 260.875 30.36 260.875 31.48C260.875 32.6 260.622 33.5933 260.115 34.46C259.608 35.3267 258.915 36 258.035 36.48C257.168 36.9467 256.208 37.18 255.155 37.18ZM255.155 35.2C255.742 35.2 256.288 35.06 256.795 34.78C257.315 34.5 257.735 34.08 258.055 33.52C258.375 32.96 258.535 32.28 258.535 31.48C258.535 30.68 258.382 30.0067 258.075 29.46C257.768 28.9 257.362 28.48 256.855 28.2C256.348 27.92 255.802 27.78 255.215 27.78C254.628 27.78 254.082 27.92 253.575 28.2C253.082 28.48 252.688 28.9 252.395 29.46C252.102 30.0067 251.955 30.68 251.955 31.48C251.955 32.6667 252.255 33.5867 252.855 34.24C253.468 34.88 254.235 35.2 255.155 35.2ZM262.369 31.48C262.369 30.3467 262.596 29.3533 263.049 28.5C263.516 27.6333 264.156 26.9667 264.969 26.5C265.782 26.0333 266.716 25.8 267.769 25.8C269.102 25.8 270.202 26.12 271.069 26.76C271.949 27.3867 272.542 28.2867 272.849 29.46H270.389C270.189 28.9133 269.869 28.4867 269.429 28.18C268.989 27.8733 268.436 27.72 267.769 27.72C266.836 27.72 266.089 28.0533 265.529 28.72C264.982 29.3733 264.709 30.2933 264.709 31.48C264.709 32.6667 264.982 33.5933 265.529 34.26C266.089 34.9267 266.836 35.26 267.769 35.26C269.089 35.26 269.962 34.68 270.389 33.52H272.849C272.529 34.64 271.929 35.5333 271.049 36.2C270.169 36.8533 269.076 37.18 267.769 37.18C266.716 37.18 265.782 36.9467 264.969 36.48C264.156 36 263.516 35.3333 263.049 34.48C262.596 33.6133 262.369 32.6133 262.369 31.48ZM285.101 25.98V37H282.821V35.7C282.461 36.1533 281.988 36.5133 281.401 36.78C280.828 37.0333 280.214 37.16 279.561 37.16C278.694 37.16 277.914 36.98 277.221 36.62C276.541 36.26 276.001 35.7267 275.601 35.02C275.214 34.3133 275.021 33.46 275.021 32.46V25.98H277.281V32.12C277.281 33.1067 277.528 33.8667 278.021 34.4C278.514 34.92 279.188 35.18 280.041 35.18C280.894 35.18 281.568 34.92 282.061 34.4C282.568 33.8667 282.821 33.1067 282.821 32.12V25.98H285.101ZM301.449 25.8C302.316 25.8 303.089 25.98 303.769 26.34C304.463 26.7 305.003 27.2333 305.389 27.94C305.789 28.6467 305.989 29.5 305.989 30.5V37H303.729V30.84C303.729 29.8533 303.483 29.1 302.989 28.58C302.496 28.0467 301.823 27.78 300.969 27.78C300.116 27.78 299.436 28.0467 298.929 28.58C298.436 29.1 298.189 29.8533 298.189 30.84V37H295.929V30.84C295.929 29.8533 295.683 29.1 295.189 28.58C294.696 28.0467 294.023 27.78 293.169 27.78C292.316 27.78 291.636 28.0467 291.129 28.58C290.636 29.1 290.389 29.8533 290.389 30.84V37H288.109V25.98H290.389V27.24C290.763 26.7867 291.236 26.4333 291.809 26.18C292.383 25.9267 292.996 25.8 293.649 25.8C294.529 25.8 295.316 25.9867 296.009 26.36C296.703 26.7333 297.236 27.2733 297.609 27.98C297.943 27.3133 298.463 26.7867 299.169 26.4C299.876 26 300.636 25.8 301.449 25.8ZM318.991 31.22C318.991 31.6333 318.964 32.0067 318.911 32.34H310.491C310.557 33.22 310.884 33.9267 311.471 34.46C312.057 34.9933 312.777 35.26 313.631 35.26C314.857 35.26 315.724 34.7467 316.231 33.72H318.691C318.357 34.7333 317.751 35.5667 316.871 36.22C316.004 36.86 314.924 37.18 313.631 37.18C312.577 37.18 311.631 36.9467 310.791 36.48C309.964 36 309.311 35.3333 308.831 34.48C308.364 33.6133 308.131 32.6133 308.131 31.48C308.131 30.3467 308.357 29.3533 308.811 28.5C309.277 27.6333 309.924 26.9667 310.751 26.5C311.591 26.0333 312.551 25.8 313.631 25.8C314.671 25.8 315.597 26.0267 316.411 26.48C317.224 26.9333 317.857 27.5733 318.311 28.4C318.764 29.2133 318.991 30.1533 318.991 31.22ZM316.611 30.5C316.597 29.66 316.297 28.9867 315.711 28.48C315.124 27.9733 314.397 27.72 313.531 27.72C312.744 27.72 312.071 27.9733 311.511 28.48C310.951 28.9733 310.617 29.6467 310.511 30.5H316.611ZM326.794 25.8C327.661 25.8 328.434 25.98 329.114 26.34C329.808 26.7 330.348 27.2333 330.734 27.94C331.121 28.6467 331.314 29.5 331.314 30.5V37H329.054V30.84C329.054 29.8533 328.808 29.1 328.314 28.58C327.821 28.0467 327.148 27.78 326.294 27.78C325.441 27.78 324.761 28.0467 324.254 28.58C323.761 29.1 323.514 29.8533 323.514 30.84V37H321.234V25.98H323.514V27.24C323.888 26.7867 324.361 26.4333 324.934 26.18C325.521 25.9267 326.141 25.8 326.794 25.8ZM336.883 27.84V33.94C336.883 34.3533 336.976 34.6533 337.163 34.84C337.363 35.0133 337.696 35.1 338.163 35.1H339.563V37H337.763C336.736 37 335.949 36.76 335.403 36.28C334.856 35.8 334.583 35.02 334.583 33.94V27.84H333.283V25.98H334.583V23.24H336.883V25.98H339.563V27.84H336.883Z" fill="black"/>
<path d="M237.74 106.02C237.74 104.66 238.053 103.44 238.68 102.36C239.32 101.28 240.18 100.44 241.26 99.84C242.353 99.2267 243.547 98.92 244.84 98.92C246.32 98.92 247.633 99.2867 248.78 100.02C249.94 100.74 250.78 101.767 251.3 103.1H248.56C248.2 102.367 247.7 101.82 247.06 101.46C246.42 101.1 245.68 100.92 244.84 100.92C243.92 100.92 243.1 101.127 242.38 101.54C241.66 101.953 241.093 102.547 240.68 103.32C240.28 104.093 240.08 104.993 240.08 106.02C240.08 107.047 240.28 107.947 240.68 108.72C241.093 109.493 241.66 110.093 242.38 110.52C243.1 110.933 243.92 111.14 244.84 111.14C245.68 111.14 246.42 110.96 247.06 110.6C247.7 110.24 248.2 109.693 248.56 108.96H251.3C250.78 110.293 249.94 111.32 248.78 112.04C247.633 112.76 246.32 113.12 244.84 113.12C243.533 113.12 242.34 112.82 241.26 112.22C240.18 111.607 239.32 110.76 238.68 109.68C238.053 108.6 237.74 107.38 237.74 106.02ZM263.949 101.98V113H261.669V111.7C261.309 112.153 260.835 112.513 260.249 112.78C259.675 113.033 259.062 113.16 258.409 113.16C257.542 113.16 256.762 112.98 256.069 112.62C255.389 112.26 254.849 111.727 254.449 111.02C254.062 110.313 253.869 109.46 253.869 108.46V101.98H256.129V108.12C256.129 109.107 256.375 109.867 256.869 110.4C257.362 110.92 258.035 111.18 258.889 111.18C259.742 111.18 260.415 110.92 260.909 110.4C261.415 109.867 261.669 109.107 261.669 108.12V101.98H263.949ZM270.957 113.18C270.09 113.18 269.31 113.027 268.617 112.72C267.937 112.4 267.397 111.973 266.997 111.44C266.597 110.893 266.384 110.287 266.357 109.62H268.717C268.757 110.087 268.977 110.48 269.377 110.8C269.79 111.107 270.304 111.26 270.917 111.26C271.557 111.26 272.05 111.14 272.397 110.9C272.757 110.647 272.937 110.327 272.937 109.94C272.937 109.527 272.737 109.22 272.337 109.02C271.95 108.82 271.33 108.6 270.477 108.36C269.65 108.133 268.977 107.913 268.457 107.7C267.937 107.487 267.484 107.16 267.097 106.72C266.724 106.28 266.537 105.7 266.537 104.98C266.537 104.393 266.71 103.86 267.057 103.38C267.404 102.887 267.897 102.5 268.537 102.22C269.19 101.94 269.937 101.8 270.777 101.8C272.03 101.8 273.037 102.12 273.797 102.76C274.57 103.387 274.984 104.247 275.037 105.34H272.757C272.717 104.847 272.517 104.453 272.157 104.16C271.797 103.867 271.31 103.72 270.697 103.72C270.097 103.72 269.637 103.833 269.317 104.06C268.997 104.287 268.837 104.587 268.837 104.96C268.837 105.253 268.944 105.5 269.157 105.7C269.37 105.9 269.63 106.06 269.937 106.18C270.244 106.287 270.697 106.427 271.297 106.6C272.097 106.813 272.75 107.033 273.257 107.26C273.777 107.473 274.224 107.793 274.597 108.22C274.97 108.647 275.164 109.213 275.177 109.92C275.177 110.547 275.004 111.107 274.657 111.6C274.31 112.093 273.817 112.48 273.177 112.76C272.55 113.04 271.81 113.18 270.957 113.18ZM280.301 103.84V109.94C280.301 110.353 280.394 110.653 280.581 110.84C280.781 111.013 281.114 111.1 281.581 111.1H282.981V113H281.181C280.154 113 279.367 112.76 278.821 112.28C278.274 111.8 278.001 111.02 278.001 109.94V103.84H276.701V101.98H278.001V99.24H280.301V101.98H282.981V103.84H280.301ZM289.862 113.18C288.822 113.18 287.882 112.947 287.042 112.48C286.202 112 285.542 111.333 285.062 110.48C284.582 109.613 284.342 108.613 284.342 107.48C284.342 106.36 284.589 105.367 285.082 104.5C285.575 103.633 286.249 102.967 287.102 102.5C287.955 102.033 288.909 101.8 289.962 101.8C291.015 101.8 291.969 102.033 292.822 102.5C293.675 102.967 294.349 103.633 294.842 104.5C295.335 105.367 295.582 106.36 295.582 107.48C295.582 108.6 295.329 109.593 294.822 110.46C294.315 111.327 293.622 112 292.742 112.48C291.875 112.947 290.915 113.18 289.862 113.18ZM289.862 111.2C290.449 111.2 290.995 111.06 291.502 110.78C292.022 110.5 292.442 110.08 292.762 109.52C293.082 108.96 293.242 108.28 293.242 107.48C293.242 106.68 293.089 106.007 292.782 105.46C292.475 104.9 292.069 104.48 291.562 104.2C291.055 103.92 290.509 103.78 289.922 103.78C289.335 103.78 288.789 103.92 288.282 104.2C287.789 104.48 287.395 104.9 287.102 105.46C286.809 106.007 286.662 106.68 286.662 107.48C286.662 108.667 286.962 109.587 287.562 110.24C288.175 110.88 288.942 111.2 289.862 111.2ZM311.176 101.8C312.043 101.8 312.816 101.98 313.496 102.34C314.189 102.7 314.729 103.233 315.116 103.94C315.516 104.647 315.716 105.5 315.716 106.5V113H313.456V106.84C313.456 105.853 313.209 105.1 312.716 104.58C312.223 104.047 311.549 103.78 310.696 103.78C309.843 103.78 309.163 104.047 308.656 104.58C308.163 105.1 307.916 105.853 307.916 106.84V113H305.656V106.84C305.656 105.853 305.409 105.1 304.916 104.58C304.423 104.047 303.749 103.78 302.896 103.78C302.043 103.78 301.363 104.047 300.856 104.58C300.363 105.1 300.116 105.853 300.116 106.84V113H297.836V101.98H300.116V103.24C300.489 102.787 300.963 102.433 301.536 102.18C302.109 101.927 302.723 101.8 303.376 101.8C304.256 101.8 305.043 101.987 305.736 102.36C306.429 102.733 306.963 103.273 307.336 103.98C307.669 103.313 308.189 102.787 308.896 102.4C309.603 102 310.363 101.8 311.176 101.8ZM319.777 100.52C319.364 100.52 319.017 100.38 318.737 100.1C318.457 99.82 318.317 99.4733 318.317 99.06C318.317 98.6467 318.457 98.3 318.737 98.02C319.017 97.74 319.364 97.6 319.777 97.6C320.177 97.6 320.517 97.74 320.797 98.02C321.077 98.3 321.217 98.6467 321.217 99.06C321.217 99.4733 321.077 99.82 320.797 100.1C320.517 100.38 320.177 100.52 319.777 100.52ZM320.897 101.98V113H318.617V101.98H320.897ZM325.911 111.14H330.911V113H323.271V111.14L328.291 103.84H323.271V101.98H330.911V103.84L325.911 111.14ZM343.405 107.22C343.405 107.633 343.378 108.007 343.325 108.34H334.905C334.971 109.22 335.298 109.927 335.885 110.46C336.471 110.993 337.191 111.26 338.045 111.26C339.271 111.26 340.138 110.747 340.645 109.72H343.105C342.771 110.733 342.165 111.567 341.285 112.22C340.418 112.86 339.338 113.18 338.045 113.18C336.991 113.18 336.045 112.947 335.205 112.48C334.378 112 333.725 111.333 333.245 110.48C332.778 109.613 332.545 108.613 332.545 107.48C332.545 106.347 332.771 105.353 333.225 104.5C333.691 103.633 334.338 102.967 335.165 102.5C336.005 102.033 336.965 101.8 338.045 101.8C339.085 101.8 340.011 102.027 340.825 102.48C341.638 102.933 342.271 103.573 342.725 104.4C343.178 105.213 343.405 106.153 343.405 107.22ZM341.025 106.5C341.011 105.66 340.711 104.987 340.125 104.48C339.538 103.973 338.811 103.72 337.945 103.72C337.158 103.72 336.485 103.973 335.925 104.48C335.365 104.973 335.031 105.647 334.925 106.5H341.025ZM359.824 99.1V100.96H356.124V113H353.844V100.96H350.124V99.1H359.824ZM372.233 107.22C372.233 107.633 372.206 108.007 372.153 108.34H363.733C363.799 109.22 364.126 109.927 364.713 110.46C365.299 110.993 366.019 111.26 366.873 111.26C368.099 111.26 368.966 110.747 369.473 109.72H371.933C371.599 110.733 370.993 111.567 370.113 112.22C369.246 112.86 368.166 113.18 366.873 113.18C365.819 113.18 364.873 112.947 364.033 112.48C363.206 112 362.553 111.333 362.073 110.48C361.606 109.613 361.373 108.613 361.373 107.48C361.373 106.347 361.599 105.353 362.053 104.5C362.519 103.633 363.166 102.967 363.993 102.5C364.833 102.033 365.793 101.8 366.873 101.8C367.913 101.8 368.839 102.027 369.653 102.48C370.466 102.933 371.099 103.573 371.553 104.4C372.006 105.213 372.233 106.153 372.233 107.22ZM369.853 106.5C369.839 105.66 369.539 104.987 368.953 104.48C368.366 103.973 367.639 103.72 366.773 103.72C365.986 103.72 365.313 103.973 364.753 104.48C364.193 104.973 363.859 105.647 363.753 106.5H369.853ZM378.477 113.18C377.61 113.18 376.83 113.027 376.137 112.72C375.457 112.4 374.917 111.973 374.517 111.44C374.117 110.893 373.903 110.287 373.877 109.62H376.237C376.277 110.087 376.497 110.48 376.897 110.8C377.31 111.107 377.823 111.26 378.437 111.26C379.077 111.26 379.57 111.14 379.917 110.9C380.277 110.647 380.457 110.327 380.457 109.94C380.457 109.527 380.257 109.22 379.857 109.02C379.47 108.82 378.85 108.6 377.997 108.36C377.17 108.133 376.497 107.913 375.977 107.7C375.457 107.487 375.003 107.16 374.617 106.72C374.243 106.28 374.057 105.7 374.057 104.98C374.057 104.393 374.23 103.86 374.577 103.38C374.923 102.887 375.417 102.5 376.057 102.22C376.71 101.94 377.457 101.8 378.297 101.8C379.55 101.8 380.557 102.12 381.317 102.76C382.09 103.387 382.503 104.247 382.557 105.34H380.277C380.237 104.847 380.037 104.453 379.677 104.16C379.317 103.867 378.83 103.72 378.217 103.72C377.617 103.72 377.157 103.833 376.837 104.06C376.517 104.287 376.357 104.587 376.357 104.96C376.357 105.253 376.463 105.5 376.677 105.7C376.89 105.9 377.15 106.06 377.457 106.18C377.763 106.287 378.217 106.427 378.817 106.6C379.617 106.813 380.27 107.033 380.777 107.26C381.297 107.473 381.743 107.793 382.117 108.22C382.49 108.647 382.683 109.213 382.697 109.92C382.697 110.547 382.523 111.107 382.177 111.6C381.83 112.093 381.337 112.48 380.697 112.76C380.07 113.04 379.33 113.18 378.477 113.18ZM387.82 103.84V109.94C387.82 110.353 387.913 110.653 388.1 110.84C388.3 111.013 388.633 111.1 389.1 111.1H390.5V113H388.7C387.673 113 386.887 112.76 386.34 112.28C385.793 111.8 385.52 111.02 385.52 109.94V103.84H384.22V101.98H385.52V99.24H387.82V101.98H390.5V103.84H387.82Z" fill="black"/>
<path d="M119.08 213.14C118.147 213.14 117.307 212.98 116.56 212.66C115.813 212.327 115.227 211.86 114.8 211.26C114.373 210.66 114.16 209.96 114.16 209.16H116.6C116.653 209.76 116.887 210.253 117.3 210.64C117.727 211.027 118.32 211.22 119.08 211.22C119.867 211.22 120.48 211.033 120.92 210.66C121.36 210.273 121.58 209.78 121.58 209.18C121.58 208.713 121.44 208.333 121.16 208.04C120.893 207.747 120.553 207.52 120.14 207.36C119.74 207.2 119.18 207.027 118.46 206.84C117.553 206.6 116.813 206.36 116.24 206.12C115.68 205.867 115.2 205.48 114.8 204.96C114.4 204.44 114.2 203.747 114.2 202.88C114.2 202.08 114.4 201.38 114.8 200.78C115.2 200.18 115.76 199.72 116.48 199.4C117.2 199.08 118.033 198.92 118.98 198.92C120.327 198.92 121.427 199.26 122.28 199.94C123.147 200.607 123.627 201.527 123.72 202.7H121.2C121.16 202.193 120.92 201.76 120.48 201.4C120.04 201.04 119.46 200.86 118.74 200.86C118.087 200.86 117.553 201.027 117.14 201.36C116.727 201.693 116.52 202.173 116.52 202.8C116.52 203.227 116.647 203.58 116.9 203.86C117.167 204.127 117.5 204.34 117.9 204.5C118.3 204.66 118.847 204.833 119.54 205.02C120.46 205.273 121.207 205.527 121.78 205.78C122.367 206.033 122.86 206.427 123.26 206.96C123.673 207.48 123.88 208.18 123.88 209.06C123.88 209.767 123.687 210.433 123.3 211.06C122.927 211.687 122.373 212.193 121.64 212.58C120.92 212.953 120.067 213.14 119.08 213.14ZM136.67 207.22C136.67 207.633 136.644 208.007 136.59 208.34H128.17C128.237 209.22 128.564 209.927 129.15 210.46C129.737 210.993 130.457 211.26 131.31 211.26C132.537 211.26 133.404 210.747 133.91 209.72H136.37C136.037 210.733 135.43 211.567 134.55 212.22C133.684 212.86 132.604 213.18 131.31 213.18C130.257 213.18 129.31 212.947 128.47 212.48C127.644 212 126.99 211.333 126.51 210.48C126.044 209.613 125.81 208.613 125.81 207.48C125.81 206.347 126.037 205.353 126.49 204.5C126.957 203.633 127.604 202.967 128.43 202.5C129.27 202.033 130.23 201.8 131.31 201.8C132.35 201.8 133.277 202.027 134.09 202.48C134.904 202.933 135.537 203.573 135.99 204.4C136.444 205.213 136.67 206.153 136.67 207.22ZM134.29 206.5C134.277 205.66 133.977 204.987 133.39 204.48C132.804 203.973 132.077 203.72 131.21 203.72C130.424 203.72 129.75 203.973 129.19 204.48C128.63 204.973 128.297 205.647 128.19 206.5H134.29ZM141.574 203.84V209.94C141.574 210.353 141.667 210.653 141.854 210.84C142.054 211.013 142.387 211.1 142.854 211.1H144.254V213H142.454C141.427 213 140.641 212.76 140.094 212.28C139.547 211.8 139.274 211.02 139.274 209.94V203.84H137.974V201.98H139.274V199.24H141.574V201.98H144.254V203.84H141.574ZM156.131 213.14C155.197 213.14 154.357 212.98 153.611 212.66C152.864 212.327 152.277 211.86 151.851 211.26C151.424 210.66 151.211 209.96 151.211 209.16H153.651C153.704 209.76 153.937 210.253 154.351 210.64C154.777 211.027 155.371 211.22 156.131 211.22C156.917 211.22 157.531 211.033 157.971 210.66C158.411 210.273 158.631 209.78 158.631 209.18C158.631 208.713 158.491 208.333 158.211 208.04C157.944 207.747 157.604 207.52 157.191 207.36C156.791 207.2 156.231 207.027 155.511 206.84C154.604 206.6 153.864 206.36 153.291 206.12C152.731 205.867 152.251 205.48 151.851 204.96C151.451 204.44 151.251 203.747 151.251 202.88C151.251 202.08 151.451 201.38 151.851 200.78C152.251 200.18 152.811 199.72 153.531 199.4C154.251 199.08 155.084 198.92 156.031 198.92C157.377 198.92 158.477 199.26 159.331 199.94C160.197 200.607 160.677 201.527 160.771 202.7H158.251C158.211 202.193 157.971 201.76 157.531 201.4C157.091 201.04 156.511 200.86 155.791 200.86C155.137 200.86 154.604 201.027 154.191 201.36C153.777 201.693 153.571 202.173 153.571 202.8C153.571 203.227 153.697 203.58 153.951 203.86C154.217 204.127 154.551 204.34 154.951 204.5C155.351 204.66 155.897 204.833 156.591 205.02C157.511 205.273 158.257 205.527 158.831 205.78C159.417 206.033 159.911 206.427 160.311 206.96C160.724 207.48 160.931 208.18 160.931 209.06C160.931 209.767 160.737 210.433 160.351 211.06C159.977 211.687 159.424 212.193 158.691 212.58C157.971 212.953 157.117 213.14 156.131 213.14ZM162.861 207.48C162.861 206.347 163.088 205.353 163.541 204.5C164.008 203.633 164.648 202.967 165.461 202.5C166.274 202.033 167.208 201.8 168.261 201.8C169.594 201.8 170.694 202.12 171.561 202.76C172.441 203.387 173.034 204.287 173.341 205.46H170.881C170.681 204.913 170.361 204.487 169.921 204.18C169.481 203.873 168.928 203.72 168.261 203.72C167.328 203.72 166.581 204.053 166.021 204.72C165.474 205.373 165.201 206.293 165.201 207.48C165.201 208.667 165.474 209.593 166.021 210.26C166.581 210.927 167.328 211.26 168.261 211.26C169.581 211.26 170.454 210.68 170.881 209.52H173.341C173.021 210.64 172.421 211.533 171.541 212.2C170.661 212.853 169.568 213.18 168.261 213.18C167.208 213.18 166.274 212.947 165.461 212.48C164.648 212 164.008 211.333 163.541 210.48C163.088 209.613 162.861 208.613 162.861 207.48ZM181.313 201.8C182.153 201.8 182.9 201.98 183.553 202.34C184.22 202.7 184.74 203.233 185.113 203.94C185.5 204.647 185.693 205.5 185.693 206.5V213H183.433V206.84C183.433 205.853 183.187 205.1 182.693 204.58C182.2 204.047 181.527 203.78 180.673 203.78C179.82 203.78 179.14 204.047 178.633 204.58C178.14 205.1 177.893 205.853 177.893 206.84V213H175.613V198.2H177.893V203.26C178.28 202.793 178.767 202.433 179.353 202.18C179.953 201.927 180.607 201.8 181.313 201.8ZM198.702 207.22C198.702 207.633 198.675 208.007 198.622 208.34H190.202C190.268 209.22 190.595 209.927 191.182 210.46C191.768 210.993 192.488 211.26 193.342 211.26C194.568 211.26 195.435 210.747 195.942 209.72H198.402C198.068 210.733 197.462 211.567 196.582 212.22C195.715 212.86 194.635 213.18 193.342 213.18C192.288 213.18 191.342 212.947 190.502 212.48C189.675 212 189.022 211.333 188.542 210.48C188.075 209.613 187.842 208.613 187.842 207.48C187.842 206.347 188.068 205.353 188.522 204.5C188.988 203.633 189.635 202.967 190.462 202.5C191.302 202.033 192.262 201.8 193.342 201.8C194.382 201.8 195.308 202.027 196.122 202.48C196.935 202.933 197.568 203.573 198.022 204.4C198.475 205.213 198.702 206.153 198.702 207.22ZM196.322 206.5C196.308 205.66 196.008 204.987 195.422 204.48C194.835 203.973 194.108 203.72 193.242 203.72C192.455 203.72 191.782 203.973 191.222 204.48C190.662 204.973 190.328 205.647 190.222 206.5H196.322ZM200.185 207.44C200.185 206.333 200.412 205.353 200.865 204.5C201.332 203.647 201.959 202.987 202.745 202.52C203.545 202.04 204.432 201.8 205.405 201.8C206.125 201.8 206.832 201.96 207.525 202.28C208.232 202.587 208.792 203 209.205 203.52V198.2H211.505V213H209.205V211.34C208.832 211.873 208.312 212.313 207.645 212.66C206.992 213.007 206.239 213.18 205.385 213.18C204.425 213.18 203.545 212.94 202.745 212.46C201.959 211.967 201.332 211.287 200.865 210.42C200.412 209.54 200.185 208.547 200.185 207.44ZM209.205 207.48C209.205 206.72 209.045 206.06 208.725 205.5C208.419 204.94 208.012 204.513 207.505 204.22C206.999 203.927 206.452 203.78 205.865 203.78C205.279 203.78 204.732 203.927 204.225 204.22C203.719 204.5 203.305 204.92 202.985 205.48C202.679 206.027 202.525 206.68 202.525 207.44C202.525 208.2 202.679 208.867 202.985 209.44C203.305 210.013 203.719 210.453 204.225 210.76C204.745 211.053 205.292 211.2 205.865 211.2C206.452 211.2 206.999 211.053 207.505 210.76C208.012 210.467 208.419 210.04 208.725 209.48C209.045 208.907 209.205 208.24 209.205 207.48ZM224.48 201.98V213H222.2V211.7C221.84 212.153 221.367 212.513 220.78 212.78C220.207 213.033 219.593 213.16 218.94 213.16C218.073 213.16 217.293 212.98 216.6 212.62C215.92 212.26 215.38 211.727 214.98 211.02C214.593 210.313 214.4 209.46 214.4 208.46V201.98H216.66V208.12C216.66 209.107 216.907 209.867 217.4 210.4C217.893 210.92 218.567 211.18 219.42 211.18C220.273 211.18 220.947 210.92 221.44 210.4C221.947 209.867 222.2 209.107 222.2 208.12V201.98H224.48ZM229.768 198.2V213H227.488V198.2H229.768ZM242.862 207.22C242.862 207.633 242.835 208.007 242.782 208.34H234.362C234.428 209.22 234.755 209.927 235.342 210.46C235.928 210.993 236.648 211.26 237.502 211.26C238.728 211.26 239.595 210.747 240.102 209.72H242.562C242.228 210.733 241.622 211.567 240.742 212.22C239.875 212.86 238.795 213.18 237.502 213.18C236.448 213.18 235.502 212.947 234.662 212.48C233.835 212 233.182 211.333 232.702 210.48C232.235 209.613 232.002 208.613 232.002 207.48C232.002 206.347 232.228 205.353 232.682 204.5C233.148 203.633 233.795 202.967 234.622 202.5C235.462 202.033 236.422 201.8 237.502 201.8C238.542 201.8 239.468 202.027 240.282 202.48C241.095 202.933 241.728 203.573 242.182 204.4C242.635 205.213 242.862 206.153 242.862 207.22ZM240.482 206.5C240.468 205.66 240.168 204.987 239.582 204.48C238.995 203.973 238.268 203.72 237.402 203.72C236.615 203.72 235.942 203.973 235.382 204.48C234.822 204.973 234.488 205.647 234.382 206.5H240.482Z" fill="black"/>
<path d="M218.08 289.14C217.147 289.14 216.307 288.98 215.56 288.66C214.813 288.327 214.227 287.86 213.8 287.26C213.373 286.66 213.16 285.96 213.16 285.16H215.6C215.653 285.76 215.887 286.253 216.3 286.64C216.727 287.027 217.32 287.22 218.08 287.22C218.867 287.22 219.48 287.033 219.92 286.66C220.36 286.273 220.58 285.78 220.58 285.18C220.58 284.713 220.44 284.333 220.16 284.04C219.893 283.747 219.553 283.52 219.14 283.36C218.74 283.2 218.18 283.027 217.46 282.84C216.553 282.6 215.813 282.36 215.24 282.12C214.68 281.867 214.2 281.48 213.8 280.96C213.4 280.44 213.2 279.747 213.2 278.88C213.2 278.08 213.4 277.38 213.8 276.78C214.2 276.18 214.76 275.72 215.48 275.4C216.2 275.08 217.033 274.92 217.98 274.92C219.327 274.92 220.427 275.26 221.28 275.94C222.147 276.607 222.627 277.527 222.72 278.7H220.2C220.16 278.193 219.92 277.76 219.48 277.4C219.04 277.04 218.46 276.86 217.74 276.86C217.087 276.86 216.553 277.027 216.14 277.36C215.727 277.693 215.52 278.173 215.52 278.8C215.52 279.227 215.647 279.58 215.9 279.86C216.167 280.127 216.5 280.34 216.9 280.5C217.3 280.66 217.847 280.833 218.54 281.02C219.46 281.273 220.207 281.527 220.78 281.78C221.367 282.033 221.86 282.427 222.26 282.96C222.673 283.48 222.88 284.18 222.88 285.06C222.88 285.767 222.687 286.433 222.3 287.06C221.927 287.687 221.373 288.193 220.64 288.58C219.92 288.953 219.067 289.14 218.08 289.14ZM231.27 277.8C232.11 277.8 232.857 277.98 233.51 278.34C234.177 278.7 234.697 279.233 235.07 279.94C235.457 280.647 235.65 281.5 235.65 282.5V289H233.39V282.84C233.39 281.853 233.144 281.1 232.65 280.58C232.157 280.047 231.484 279.78 230.63 279.78C229.777 279.78 229.097 280.047 228.59 280.58C228.097 281.1 227.85 281.853 227.85 282.84V289H225.57V274.2H227.85V279.26C228.237 278.793 228.724 278.433 229.31 278.18C229.91 277.927 230.564 277.8 231.27 277.8ZM237.799 283.44C237.799 282.333 238.025 281.353 238.479 280.5C238.945 279.647 239.572 278.987 240.359 278.52C241.159 278.04 242.039 277.8 242.999 277.8C243.865 277.8 244.619 277.973 245.259 278.32C245.912 278.653 246.432 279.073 246.819 279.58V277.98H249.119V289H246.819V287.36C246.432 287.88 245.905 288.313 245.239 288.66C244.572 289.007 243.812 289.18 242.959 289.18C242.012 289.18 241.145 288.94 240.359 288.46C239.572 287.967 238.945 287.287 238.479 286.42C238.025 285.54 237.799 284.547 237.799 283.44ZM246.819 283.48C246.819 282.72 246.659 282.06 246.339 281.5C246.032 280.94 245.625 280.513 245.119 280.22C244.612 279.927 244.065 279.78 243.479 279.78C242.892 279.78 242.345 279.927 241.839 280.22C241.332 280.5 240.919 280.92 240.599 281.48C240.292 282.027 240.139 282.68 240.139 283.44C240.139 284.2 240.292 284.867 240.599 285.44C240.919 286.013 241.332 286.453 241.839 286.76C242.359 287.053 242.905 287.2 243.479 287.2C244.065 287.2 244.612 287.053 245.119 286.76C245.625 286.467 246.032 286.04 246.339 285.48C246.659 284.907 246.819 284.24 246.819 283.48ZM254.393 279.58C254.727 279.02 255.167 278.587 255.713 278.28C256.273 277.96 256.933 277.8 257.693 277.8V280.16H257.113C256.22 280.16 255.54 280.387 255.073 280.84C254.62 281.293 254.393 282.08 254.393 283.2V289H252.113V277.98H254.393V279.58ZM269.889 283.22C269.889 283.633 269.862 284.007 269.809 284.34H261.389C261.456 285.22 261.782 285.927 262.369 286.46C262.956 286.993 263.676 287.26 264.529 287.26C265.756 287.26 266.622 286.747 267.129 285.72H269.589C269.256 286.733 268.649 287.567 267.769 288.22C266.902 288.86 265.822 289.18 264.529 289.18C263.476 289.18 262.529 288.947 261.689 288.48C260.862 288 260.209 287.333 259.729 286.48C259.262 285.613 259.029 284.613 259.029 283.48C259.029 282.347 259.256 281.353 259.709 280.5C260.176 279.633 260.822 278.967 261.649 278.5C262.489 278.033 263.449 277.8 264.529 277.8C265.569 277.8 266.496 278.027 267.309 278.48C268.122 278.933 268.756 279.573 269.209 280.4C269.662 281.213 269.889 282.153 269.889 283.22ZM267.509 282.5C267.496 281.66 267.196 280.987 266.609 280.48C266.022 279.973 265.296 279.72 264.429 279.72C263.642 279.72 262.969 279.973 262.409 280.48C261.849 280.973 261.516 281.647 261.409 282.5H267.509ZM276.568 283.44C276.568 282.333 276.795 281.353 277.248 280.5C277.715 279.647 278.341 278.987 279.128 278.52C279.928 278.04 280.808 277.8 281.768 277.8C282.635 277.8 283.388 277.973 284.028 278.32C284.681 278.653 285.201 279.073 285.588 279.58V277.98H287.888V289H285.588V287.36C285.201 287.88 284.675 288.313 284.008 288.66C283.341 289.007 282.581 289.18 281.728 289.18C280.781 289.18 279.915 288.94 279.128 288.46C278.341 287.967 277.715 287.287 277.248 286.42C276.795 285.54 276.568 284.547 276.568 283.44ZM285.588 283.48C285.588 282.72 285.428 282.06 285.108 281.5C284.801 280.94 284.395 280.513 283.888 280.22C283.381 279.927 282.835 279.78 282.248 279.78C281.661 279.78 281.115 279.927 280.608 280.22C280.101 280.5 279.688 280.92 279.368 281.48C279.061 282.027 278.908 282.68 278.908 283.44C278.908 284.2 279.061 284.867 279.368 285.44C279.688 286.013 280.101 286.453 280.608 286.76C281.128 287.053 281.675 287.2 282.248 287.2C282.835 287.2 283.381 287.053 283.888 286.76C284.395 286.467 284.801 286.04 285.108 285.48C285.428 284.907 285.588 284.24 285.588 283.48ZM296.443 277.8C297.309 277.8 298.083 277.98 298.763 278.34C299.456 278.7 299.996 279.233 300.383 279.94C300.769 280.647 300.963 281.5 300.963 282.5V289H298.703V282.84C298.703 281.853 298.456 281.1 297.963 280.58C297.469 280.047 296.796 279.78 295.943 279.78C295.089 279.78 294.409 280.047 293.903 280.58C293.409 281.1 293.163 281.853 293.163 282.84V289H290.883V277.98H293.163V279.24C293.536 278.787 294.009 278.433 294.583 278.18C295.169 277.927 295.789 277.8 296.443 277.8ZM303.111 283.44C303.111 282.333 303.338 281.353 303.791 280.5C304.258 279.647 304.884 278.987 305.671 278.52C306.471 278.04 307.358 277.8 308.331 277.8C309.051 277.8 309.758 277.96 310.451 278.28C311.158 278.587 311.718 279 312.131 279.52V274.2H314.431V289H312.131V287.34C311.758 287.873 311.238 288.313 310.571 288.66C309.918 289.007 309.164 289.18 308.311 289.18C307.351 289.18 306.471 288.94 305.671 288.46C304.884 287.967 304.258 287.287 303.791 286.42C303.338 285.54 303.111 284.547 303.111 283.44ZM312.131 283.48C312.131 282.72 311.971 282.06 311.651 281.5C311.344 280.94 310.938 280.513 310.431 280.22C309.924 279.927 309.378 279.78 308.791 279.78C308.204 279.78 307.658 279.927 307.151 280.22C306.644 280.5 306.231 280.92 305.911 281.48C305.604 282.027 305.451 282.68 305.451 283.44C305.451 284.2 305.604 284.867 305.911 285.44C306.231 286.013 306.644 286.453 307.151 286.76C307.671 287.053 308.218 287.2 308.791 287.2C309.378 287.2 309.924 287.053 310.431 286.76C310.938 286.467 311.344 286.04 311.651 285.48C311.971 284.907 312.131 284.24 312.131 283.48ZM329.841 289L326.641 283.44H324.901V289H322.621V275.1H327.421C328.488 275.1 329.388 275.287 330.121 275.66C330.868 276.033 331.421 276.533 331.781 277.16C332.154 277.787 332.341 278.487 332.341 279.26C332.341 280.167 332.074 280.993 331.541 281.74C331.021 282.473 330.214 282.973 329.121 283.24L332.561 289H329.841ZM324.901 281.62H327.421C328.274 281.62 328.914 281.407 329.341 280.98C329.781 280.553 330.001 279.98 330.001 279.26C330.001 278.54 329.788 277.98 329.361 277.58C328.934 277.167 328.288 276.96 327.421 276.96H324.901V281.62ZM345.358 283.22C345.358 283.633 345.331 284.007 345.278 284.34H336.858C336.924 285.22 337.251 285.927 337.838 286.46C338.424 286.993 339.144 287.26 339.998 287.26C341.224 287.26 342.091 286.747 342.598 285.72H345.058C344.724 286.733 344.118 287.567 343.238 288.22C342.371 288.86 341.291 289.18 339.998 289.18C338.944 289.18 337.998 288.947 337.158 288.48C336.331 288 335.678 287.333 335.198 286.48C334.731 285.613 334.498 284.613 334.498 283.48C334.498 282.347 334.724 281.353 335.178 280.5C335.644 279.633 336.291 278.967 337.118 278.5C337.958 278.033 338.918 277.8 339.998 277.8C341.038 277.8 341.964 278.027 342.778 278.48C343.591 278.933 344.224 279.573 344.678 280.4C345.131 281.213 345.358 282.153 345.358 283.22ZM342.978 282.5C342.964 281.66 342.664 280.987 342.078 280.48C341.491 279.973 340.764 279.72 339.898 279.72C339.111 279.72 338.438 279.973 337.878 280.48C337.318 280.973 336.984 281.647 336.878 282.5H342.978ZM351.862 286.96L354.982 277.98H357.402L353.202 289H350.482L346.302 277.98H348.742L351.862 286.96ZM360.285 276.52C359.872 276.52 359.525 276.38 359.245 276.1C358.965 275.82 358.825 275.473 358.825 275.06C358.825 274.647 358.965 274.3 359.245 274.02C359.525 273.74 359.872 273.6 360.285 273.6C360.685 273.6 361.025 273.74 361.305 274.02C361.585 274.3 361.725 274.647 361.725 275.06C361.725 275.473 361.585 275.82 361.305 276.1C361.025 276.38 360.685 276.52 360.285 276.52ZM361.405 277.98V289H359.125V277.98H361.405ZM374.498 283.22C374.498 283.633 374.472 284.007 374.418 284.34H365.998C366.065 285.22 366.392 285.927 366.978 286.46C367.565 286.993 368.285 287.26 369.138 287.26C370.365 287.26 371.232 286.747 371.738 285.72H374.198C373.865 286.733 373.258 287.567 372.378 288.22C371.512 288.86 370.432 289.18 369.138 289.18C368.085 289.18 367.138 288.947 366.298 288.48C365.472 288 364.818 287.333 364.338 286.48C363.872 285.613 363.638 284.613 363.638 283.48C363.638 282.347 363.865 281.353 364.318 280.5C364.785 279.633 365.432 278.967 366.258 278.5C367.098 278.033 368.058 277.8 369.138 277.8C370.178 277.8 371.105 278.027 371.918 278.48C372.732 278.933 373.365 279.573 373.818 280.4C374.272 281.213 374.498 282.153 374.498 283.22ZM372.118 282.5C372.105 281.66 371.805 280.987 371.218 280.48C370.632 279.973 369.905 279.72 369.038 279.72C368.252 279.72 367.578 279.973 367.018 280.48C366.458 280.973 366.125 281.647 366.018 282.5H372.118ZM391.542 277.98L388.122 289H385.722L383.502 280.86L381.282 289H378.882L375.442 277.98H377.762L380.062 286.84L382.402 277.98H384.782L387.022 286.8L389.302 277.98H391.542Z" fill="black"/>
<path d="M103.125 31.25H100H89.5833C87.2821 31.25 85.4167 33.1155 85.4167 35.4167V64.5833C85.4167 66.8846 87.2821 68.75 89.5833 68.75H90.625M103.125 31.25L114.583 42.9687M103.125 31.25V40.8854C103.125 42.036 104.058 42.9687 105.208 42.9687H114.583M114.583 42.9687V45.3125V50V64.5833C114.583 66.8846 112.718 68.75 110.417 68.75H109.375" stroke="white" stroke-width="3" stroke-linecap="round" stroke-linejoin="round"/>
<path d="M100 68.75V52.0833M100 52.0833L105.208 57.2916M100 52.0833L94.7917 57.2916" stroke="white" stroke-width="3" stroke-linecap="round" stroke-linejoin="round"/>
<path d="M428.25 92.6667C428.25 91.2301 428.821 89.8523 429.837 88.8365C430.852 87.8207 432.23 87.25 433.667 87.25H439.5C440.937 87.25 442.314 87.8207 443.33 88.8365C444.346 89.8523 444.917 91.2301 444.917 92.6667V98.5C444.917 99.9366 444.346 101.314 443.33 102.33C442.314 103.346 440.937 103.917 439.5 103.917H433.667C432.23 103.917 430.852 103.346 429.837 102.33C428.821 101.314 428.25 99.9366 428.25 98.5V92.6667ZM428.25 113.5C428.25 112.063 428.821 110.686 429.837 109.67C430.852 108.654 432.23 108.083 433.667 108.083H439.5C440.937 108.083 442.314 108.654 443.33 109.67C444.346 110.686 444.917 112.063 444.917 113.5V119.333C444.917 120.77 444.346 122.148 443.33 123.163C442.314 124.179 440.937 124.75 439.5 124.75H433.667C432.955 124.75 432.251 124.61 431.594 124.338C430.937 124.065 430.339 123.666 429.837 123.163C428.821 122.148 428.25 120.77 428.25 119.333V113.5ZM449.083 92.6667C449.083 91.2301 449.654 89.8523 450.67 88.8365C451.686 87.8207 453.063 87.25 454.5 87.25H460.333C461.045 87.25 461.749 87.3901 462.406 87.6623C463.063 87.9345 463.661 88.3335 464.163 88.8365C464.666 89.3395 465.065 89.9366 465.338 90.5938C465.61 91.251 465.75 91.9553 465.75 92.6667V98.5C465.75 99.2113 465.61 99.9157 465.338 100.573C465.065 101.23 464.666 101.827 464.163 102.33C463.661 102.833 463.063 103.232 462.406 103.504C461.749 103.777 461.045 103.917 460.333 103.917H454.5C453.063 103.917 451.686 103.346 450.67 102.33C449.654 101.314 449.083 99.9366 449.083 98.5V92.6667ZM457.417 108.083C457.969 108.083 458.499 108.303 458.89 108.694C459.281 109.084 459.5 109.614 459.5 110.167V114.333H463.667C464.219 114.333 464.749 114.553 465.14 114.944C465.531 115.334 465.75 115.864 465.75 116.417C465.75 116.969 465.531 117.499 465.14 117.89C464.749 118.281 464.219 118.5 463.667 118.5H459.5V122.667C459.5 123.219 459.281 123.749 458.89 124.14C458.499 124.531 457.969 124.75 457.417 124.75C456.864 124.75 456.334 124.531 455.944 124.14C455.553 123.749 455.333 123.219 455.333 122.667V118.5H451.167C450.614 118.5 450.084 118.281 449.694 117.89C449.303 117.499 449.083 116.969 449.083 116.417C449.083 115.864 449.303 115.334 449.694 114.944C450.084 114.553 450.614 114.333 451.167 114.333H455.333V110.167C455.333 109.614 455.553 109.084 455.944 108.694C456.334 108.303 456.864 108.083 457.417 108.083Z" fill="white"/>
<path d="M72.9167 207C72.9167 219.656 62.6565 229.917 50 229.917C37.3435 229.917 27.0833 219.656 27.0833 207C27.0833 194.343 37.3435 184.083 50 184.083C62.6565 184.083 72.9167 194.343 72.9167 207ZM31.2642 207C31.2642 217.347 39.6525 225.736 50 225.736C60.3475 225.736 68.7358 217.347 68.7358 207C68.7358 196.652 60.3475 188.264 50 188.264C39.6525 188.264 31.2642 196.652 31.2642 207Z" fill="white"/>
<path d="M50 192.417C48.8494 192.417 47.9167 193.349 47.9167 194.5V207.972C47.9167 207.972 47.9167 208.515 48.1806 208.924C48.3573 209.27 48.6327 209.571 48.9946 209.78L58.6192 215.337C59.6156 215.913 60.8898 215.571 61.465 214.575C62.0402 213.578 61.6989 212.304 60.7025 211.729L52.0833 206.753V194.5C52.0833 193.349 51.1506 192.417 50 192.417Z" fill="white"/>
<g clip-path="url(#clip0_2_307)">
<path fill-rule="evenodd" clip-rule="evenodd" d="M425.066 237.033H441.41V253.311H425.066V237.033ZM465.833 277.865H470V281.967H465.833V277.865ZM457.823 277.858H461.991V281.766H457.823H457.82H453.656V273.775H457.692V269.725H461.797V261.65H465.964V265.619H469.934V269.721H465.964V273.823H461.859H461.797H457.823V277.858ZM445.449 269.659H449.485V265.557H445.581V261.456H449.485V257.354H445.515V261.456H441.344V257.354H445.446V245.174H449.613V257.35H453.649V261.452H457.618V257.35H461.786V261.452H457.823V265.553H453.656V273.628H449.617V281.769H445.449V269.659ZM465.763 257.35H469.93V261.452H465.763V257.35ZM433.207 257.35H437.374V261.452H433.207V257.35ZM425.066 257.35H429.233V261.452H425.066V257.35ZM445.449 237.033H449.617V241.135H445.449V237.033ZM425 265.619H441.344V281.897H425V265.619ZM428.97 269.574H437.374V277.946H428.97V269.574ZM453.586 237.033H469.93V253.311H453.586V237.033ZM457.56 240.988H465.964V249.36H457.56V240.988ZM429.036 240.988H437.44V249.36H429.036V240.988Z" fill="white"/>
</g>
<defs>
<clipPath id="clip0_2_307">
<rect width="45" height="45" fill="white" transform="translate(425 237)"/>
</clipPath>
</defs>
</svg>
