<svg width="1512" height="128" viewBox="0 0 1512 128" fill="none" xmlns="http://www.w3.org/2000/svg">
<path fill-rule="evenodd" clip-rule="evenodd" d="M0 73.1429L27.72 76.1905C55.44 79.2381 112.14 85.3333 167.58 97.5238C224.28 109.714 279.72 128 336.42 128C391.86 128 448.56 109.714 504 109.714C559.44 109.714 616.14 128 671.58 124.952C728.28 121.905 783.72 97.5238 840.42 91.4286C895.86 85.3333 952.56 97.5238 1008 94.4762C1063.44 91.4286 1120.14 73.1429 1175.58 73.1429C1232.28 73.1429 1287.72 91.4286 1344.42 100.571C1399.86 109.714 1456.56 109.714 1484.28 109.714H1512V0H1484.28C1456.56 0 1399.86 0 1344.42 0C1287.72 0 1232.28 0 1175.58 0C1120.14 0 1063.44 0 1008 0C952.56 0 895.86 0 840.42 0C783.72 0 728.28 0 671.58 0C616.14 0 559.44 0 504 0C448.56 0 391.86 0 336.42 0C279.72 0 224.28 0 167.58 0C112.14 0 55.44 0 27.72 0H0V73.1429Z" fill="#0099FF"/>
</svg>
